<mxfile host="app.diagrams.net" modified="2024-03-21T14:27:17.013Z" agent="Mozilla/5.0 (Windows NT 10.0; Win64; x64; rv:123.0) Gecko/20100101 Firefox/123.0" etag="o4HMRIjJ7zRR3-ELfHQ0" version="24.0.7" type="device">
  <diagram name="Seite-1" id="BmuVFamCOJbHdutkDvAi">
    <mxGraphModel dx="1235" dy="1825" grid="1" gridSize="10" guides="1" tooltips="1" connect="1" arrows="1" fold="1" page="1" pageScale="1" pageWidth="827" pageHeight="1169" math="0" shadow="0">
      <root>
        <mxCell id="0" />
        <mxCell id="1" parent="0" />
        <mxCell id="Bonp8VcpHLTtod9qSRFc-12" value="" style="rounded=1;whiteSpace=wrap;html=1;" vertex="1" parent="1">
          <mxGeometry x="340" y="-30" width="240" height="600" as="geometry" />
        </mxCell>
        <mxCell id="Bonp8VcpHLTtod9qSRFc-1" value="Customer" style="shape=umlActor;verticalLabelPosition=bottom;verticalAlign=top;html=1;outlineConnect=0;" vertex="1" parent="1">
          <mxGeometry x="210" y="100" width="30" height="60" as="geometry" />
        </mxCell>
        <mxCell id="Bonp8VcpHLTtod9qSRFc-2" value="Admin" style="shape=umlActor;verticalLabelPosition=bottom;verticalAlign=top;html=1;outlineConnect=0;" vertex="1" parent="1">
          <mxGeometry x="210" y="280" width="30" height="60" as="geometry" />
        </mxCell>
        <mxCell id="Bonp8VcpHLTtod9qSRFc-3" value="register" style="ellipse;whiteSpace=wrap;html=1;" vertex="1" parent="1">
          <mxGeometry x="405" y="30" width="120" height="50" as="geometry" />
        </mxCell>
        <mxCell id="Bonp8VcpHLTtod9qSRFc-4" value="&lt;div&gt;search products&lt;/div&gt;" style="ellipse;whiteSpace=wrap;html=1;" vertex="1" parent="1">
          <mxGeometry x="390" y="250" width="150" height="50" as="geometry" />
        </mxCell>
        <mxCell id="Bonp8VcpHLTtod9qSRFc-6" value="login/logout" style="ellipse;whiteSpace=wrap;html=1;" vertex="1" parent="1">
          <mxGeometry x="390" y="130" width="140" height="60" as="geometry" />
        </mxCell>
        <mxCell id="Bonp8VcpHLTtod9qSRFc-7" value="update categories" style="ellipse;whiteSpace=wrap;html=1;" vertex="1" parent="1">
          <mxGeometry x="390" y="490" width="140" height="60" as="geometry" />
        </mxCell>
        <mxCell id="Bonp8VcpHLTtod9qSRFc-8" value="update products" style="ellipse;whiteSpace=wrap;html=1;" vertex="1" parent="1">
          <mxGeometry x="400" y="370" width="120" height="60" as="geometry" />
        </mxCell>
        <mxCell id="Bonp8VcpHLTtod9qSRFc-9" value="UserService" style="shape=cube;whiteSpace=wrap;html=1;boundedLbl=1;backgroundOutline=1;darkOpacity=0.05;darkOpacity2=0.1;" vertex="1" parent="1">
          <mxGeometry x="665" y="90" width="110" height="80" as="geometry" />
        </mxCell>
        <mxCell id="Bonp8VcpHLTtod9qSRFc-10" value="Category Sevice" style="shape=cube;whiteSpace=wrap;html=1;boundedLbl=1;backgroundOutline=1;darkOpacity=0.05;darkOpacity2=0.1;" vertex="1" parent="1">
          <mxGeometry x="665" y="410" width="120" height="80" as="geometry" />
        </mxCell>
        <mxCell id="Bonp8VcpHLTtod9qSRFc-11" value="Product Service" style="shape=cube;whiteSpace=wrap;html=1;boundedLbl=1;backgroundOutline=1;darkOpacity=0.05;darkOpacity2=0.1;" vertex="1" parent="1">
          <mxGeometry x="665" y="250" width="120" height="80" as="geometry" />
        </mxCell>
        <mxCell id="Bonp8VcpHLTtod9qSRFc-13" value="API" style="text;html=1;align=center;verticalAlign=middle;whiteSpace=wrap;rounded=0;" vertex="1" parent="1">
          <mxGeometry x="354" y="-10" width="60" height="30" as="geometry" />
        </mxCell>
        <mxCell id="Bonp8VcpHLTtod9qSRFc-14" value="&lt;div&gt;DB&lt;/div&gt;" style="shape=datastore;whiteSpace=wrap;html=1;" vertex="1" parent="1">
          <mxGeometry x="850" y="240" width="60" height="60" as="geometry" />
        </mxCell>
        <mxCell id="Bonp8VcpHLTtod9qSRFc-16" value="" style="endArrow=none;html=1;rounded=0;exitX=0;exitY=0.5;exitDx=0;exitDy=0;" edge="1" parent="1" source="Bonp8VcpHLTtod9qSRFc-4" target="Bonp8VcpHLTtod9qSRFc-1">
          <mxGeometry width="50" height="50" relative="1" as="geometry">
            <mxPoint x="460" y="320" as="sourcePoint" />
            <mxPoint x="510" y="270" as="targetPoint" />
          </mxGeometry>
        </mxCell>
        <mxCell id="Bonp8VcpHLTtod9qSRFc-17" value="" style="endArrow=none;html=1;rounded=0;entryX=0;entryY=0.5;entryDx=0;entryDy=0;" edge="1" parent="1" target="Bonp8VcpHLTtod9qSRFc-3">
          <mxGeometry width="50" height="50" relative="1" as="geometry">
            <mxPoint x="240" y="140" as="sourcePoint" />
            <mxPoint x="510" y="270" as="targetPoint" />
          </mxGeometry>
        </mxCell>
        <mxCell id="Bonp8VcpHLTtod9qSRFc-18" value="" style="endArrow=none;html=1;rounded=0;entryX=0;entryY=0.5;entryDx=0;entryDy=0;" edge="1" parent="1" target="Bonp8VcpHLTtod9qSRFc-6">
          <mxGeometry width="50" height="50" relative="1" as="geometry">
            <mxPoint x="240" y="140" as="sourcePoint" />
            <mxPoint x="510" y="270" as="targetPoint" />
          </mxGeometry>
        </mxCell>
        <mxCell id="Bonp8VcpHLTtod9qSRFc-19" value="" style="endArrow=none;html=1;rounded=0;entryX=0;entryY=0.5;entryDx=0;entryDy=0;" edge="1" parent="1" source="Bonp8VcpHLTtod9qSRFc-2" target="Bonp8VcpHLTtod9qSRFc-8">
          <mxGeometry width="50" height="50" relative="1" as="geometry">
            <mxPoint x="460" y="320" as="sourcePoint" />
            <mxPoint x="510" y="270" as="targetPoint" />
          </mxGeometry>
        </mxCell>
        <mxCell id="Bonp8VcpHLTtod9qSRFc-20" value="" style="endArrow=none;html=1;rounded=0;entryX=0;entryY=0.5;entryDx=0;entryDy=0;" edge="1" parent="1" source="Bonp8VcpHLTtod9qSRFc-2" target="Bonp8VcpHLTtod9qSRFc-7">
          <mxGeometry width="50" height="50" relative="1" as="geometry">
            <mxPoint x="240" y="300" as="sourcePoint" />
            <mxPoint x="510" y="270" as="targetPoint" />
          </mxGeometry>
        </mxCell>
        <mxCell id="Bonp8VcpHLTtod9qSRFc-21" value="" style="endArrow=none;html=1;rounded=0;entryX=0;entryY=0.5;entryDx=0;entryDy=0;" edge="1" parent="1" source="Bonp8VcpHLTtod9qSRFc-2" target="Bonp8VcpHLTtod9qSRFc-4">
          <mxGeometry width="50" height="50" relative="1" as="geometry">
            <mxPoint x="460" y="320" as="sourcePoint" />
            <mxPoint x="510" y="270" as="targetPoint" />
          </mxGeometry>
        </mxCell>
        <mxCell id="Bonp8VcpHLTtod9qSRFc-22" value="" style="endArrow=none;html=1;rounded=0;exitX=1;exitY=0.3333333333333333;exitDx=0;exitDy=0;exitPerimeter=0;entryX=0;entryY=0.5;entryDx=0;entryDy=0;" edge="1" parent="1" source="Bonp8VcpHLTtod9qSRFc-2" target="Bonp8VcpHLTtod9qSRFc-6">
          <mxGeometry width="50" height="50" relative="1" as="geometry">
            <mxPoint x="460" y="320" as="sourcePoint" />
            <mxPoint x="290" y="240" as="targetPoint" />
          </mxGeometry>
        </mxCell>
        <mxCell id="Bonp8VcpHLTtod9qSRFc-23" value="" style="endArrow=none;html=1;rounded=0;exitX=1;exitY=0.5;exitDx=0;exitDy=0;entryX=0;entryY=0;entryDx=0;entryDy=30;entryPerimeter=0;" edge="1" parent="1" source="Bonp8VcpHLTtod9qSRFc-3" target="Bonp8VcpHLTtod9qSRFc-9">
          <mxGeometry width="50" height="50" relative="1" as="geometry">
            <mxPoint x="460" y="320" as="sourcePoint" />
            <mxPoint x="650" y="110" as="targetPoint" />
          </mxGeometry>
        </mxCell>
        <mxCell id="Bonp8VcpHLTtod9qSRFc-24" value="" style="endArrow=none;html=1;rounded=0;entryX=0;entryY=0;entryDx=0;entryDy=30;entryPerimeter=0;exitX=1;exitY=0.5;exitDx=0;exitDy=0;" edge="1" parent="1" source="Bonp8VcpHLTtod9qSRFc-6" target="Bonp8VcpHLTtod9qSRFc-9">
          <mxGeometry width="50" height="50" relative="1" as="geometry">
            <mxPoint x="460" y="320" as="sourcePoint" />
            <mxPoint x="510" y="270" as="targetPoint" />
          </mxGeometry>
        </mxCell>
        <mxCell id="Bonp8VcpHLTtod9qSRFc-25" value="" style="endArrow=none;html=1;rounded=0;entryX=0.01;entryY=0.283;entryDx=0;entryDy=0;entryPerimeter=0;exitX=1;exitY=0.5;exitDx=0;exitDy=0;" edge="1" parent="1" source="Bonp8VcpHLTtod9qSRFc-4" target="Bonp8VcpHLTtod9qSRFc-11">
          <mxGeometry width="50" height="50" relative="1" as="geometry">
            <mxPoint x="460" y="320" as="sourcePoint" />
            <mxPoint x="510" y="270" as="targetPoint" />
          </mxGeometry>
        </mxCell>
        <mxCell id="Bonp8VcpHLTtod9qSRFc-26" value="" style="endArrow=none;html=1;rounded=0;exitX=1;exitY=0.5;exitDx=0;exitDy=0;entryX=0;entryY=0;entryDx=0;entryDy=30;entryPerimeter=0;" edge="1" parent="1" source="Bonp8VcpHLTtod9qSRFc-8" target="Bonp8VcpHLTtod9qSRFc-11">
          <mxGeometry width="50" height="50" relative="1" as="geometry">
            <mxPoint x="460" y="320" as="sourcePoint" />
            <mxPoint x="510" y="270" as="targetPoint" />
          </mxGeometry>
        </mxCell>
        <mxCell id="Bonp8VcpHLTtod9qSRFc-27" value="" style="endArrow=none;html=1;rounded=0;entryX=0;entryY=0.5;entryDx=0;entryDy=0;exitX=0;exitY=0;exitDx=110;exitDy=50;exitPerimeter=0;" edge="1" parent="1" source="Bonp8VcpHLTtod9qSRFc-9" target="Bonp8VcpHLTtod9qSRFc-14">
          <mxGeometry width="50" height="50" relative="1" as="geometry">
            <mxPoint x="460" y="320" as="sourcePoint" />
            <mxPoint x="510" y="270" as="targetPoint" />
          </mxGeometry>
        </mxCell>
        <mxCell id="Bonp8VcpHLTtod9qSRFc-28" value="" style="endArrow=none;html=1;rounded=0;exitX=1;exitY=0.5;exitDx=0;exitDy=0;" edge="1" parent="1" source="Bonp8VcpHLTtod9qSRFc-7">
          <mxGeometry width="50" height="50" relative="1" as="geometry">
            <mxPoint x="460" y="320" as="sourcePoint" />
            <mxPoint x="660" y="440" as="targetPoint" />
          </mxGeometry>
        </mxCell>
        <mxCell id="Bonp8VcpHLTtod9qSRFc-29" value="" style="endArrow=none;html=1;rounded=0;entryX=0;entryY=0.5;entryDx=0;entryDy=0;" edge="1" parent="1" target="Bonp8VcpHLTtod9qSRFc-14">
          <mxGeometry width="50" height="50" relative="1" as="geometry">
            <mxPoint x="785" y="455" as="sourcePoint" />
            <mxPoint x="860" y="585" as="targetPoint" />
          </mxGeometry>
        </mxCell>
        <mxCell id="Bonp8VcpHLTtod9qSRFc-30" value="" style="endArrow=none;html=1;rounded=0;entryX=0;entryY=0.5;entryDx=0;entryDy=0;exitX=0;exitY=0;exitDx=120;exitDy=50;exitPerimeter=0;" edge="1" parent="1" source="Bonp8VcpHLTtod9qSRFc-11" target="Bonp8VcpHLTtod9qSRFc-14">
          <mxGeometry width="50" height="50" relative="1" as="geometry">
            <mxPoint x="790" y="300" as="sourcePoint" />
            <mxPoint x="510" y="270" as="targetPoint" />
          </mxGeometry>
        </mxCell>
      </root>
    </mxGraphModel>
  </diagram>
</mxfile>
